<?xml version="1.0" encoding="UTF-8"?>
<svg id="Layer_1" xmlns="http://www.w3.org/2000/svg" version="1.1" viewBox="0 0 196 202">
  <!-- Generator: Adobe Illustrator 30.0.0, SVG Export Plug-In . SVG Version: 2.1.1 Build 123)  -->
  <defs>
    <style>
      .st0 {
        fill: #1c3664;
      }

      .st1 {
        fill: #fff;
      }

      .st2 {
        fill: none;
        stroke: #1c3664;
        stroke-miterlimit: 10;
        stroke-width: 4px;
      }
    </style>
  </defs>
  <g>
    <g>
      <path class="st1" d="M40.29,153.5c-.52,0-1-.28-1.25-.73-.26-.45-.25-1,.02-1.45l51.83-86.53c.26-.44.74-.7,1.24-.7.13,0,.26.02.39.05.62.17,1.06.74,1.05,1.39l-.31,86.53c0,.79-.65,1.44-1.44,1.44h-51.52Z"/>
      <path class="st1" d="M95.49,153.73c-.38,0-.75-.15-1.02-.42-.27-.27-.42-.64-.42-1.02l.31-86.78c0-.79.65-1.44,1.44-1.44h50.91c.57,0,1.08.33,1.31.85.23.52.14,1.12-.24,1.55l-37.78,42.58,38.38,42.28c.38.42.48,1.03.25,1.55-.23.52-.75.86-1.32.86h-51.83Z"/>
    </g>
    <g>
      <polygon class="st0" points="92.12 65.52 40.29 152.06 91.81 152.06 92.12 65.52"/>
      <polygon class="st0" points="95.8 65.5 146.71 65.5 108.07 109.05 147.32 152.29 95.49 152.29 95.8 65.5"/>
    </g>
  </g>
  <circle class="st2" cx="98" cy="115.85" r="78.51"/>
  <g>
    <path class="st0" d="M18,31.11c.08.25.14.43.17.51l.79,2.76c.29.97.77,2.07,1.43,3.3l.04.1-.25.05-.24-.15c-1.41-.82-2.6-1.18-3.55-1.08-.96.1-1.97.7-3.04,1.79-.44.45-.86.91-1.25,1.4l-.18.18,16.11,15.83,3.34-.16-6.67,6.79.31-3.79-14.78-14.53-1.05,1.04c-1,1.02-1.52,1.94-1.54,2.77s.43,1.77,1.37,2.85l-.38.39c-1.05-1.25-1.56-2.34-1.54-3.28.03-.94.59-1.97,1.7-3.1l.89-.88.16-.16-.73-.72c-.56.45-1.06.9-1.51,1.35-1.26,1.28-1.9,2.45-1.94,3.53-.03,1.08.54,2.25,1.72,3.53l-.18.18c-1.8-.93-3.98-1.78-6.55-2.55l-.24-.06,17.59-17.89ZM18.27,37.34c-1.25.28-2.37.92-3.37,1.94-.22.23-.44.48-.66.76l14.99,14.62,5.12.38-7.46,7.59-.74-.05,7-7.12-4.23-.24-15.48-15.22.77-.82c.94-.96,1.69-1.57,2.24-1.82.55-.25,1.16-.26,1.83-.03ZM19.85,31.1c.2,1.54.94,3.68,2.22,6.42l.09.21-.6.05-.09-.18c-1.33-2.75-2.06-4.86-2.19-6.33l-.02-.16h.59Z"/>
    <path class="st0" d="M25.48,28.37c1.84-3.33,4.38-5.97,7.63-7.93,2.52-1.52,4.93-2.23,7.23-2.12,2.3.11,3.95,1.01,4.97,2.7.83,1.38,1.03,2.93.6,4.63-.43,1.71-1.43,3.36-3,4.96,2.18,1.77,4.62,3.3,7.32,4.59,2.7,1.29,5.1,2.08,7.21,2.37l-.21.25c-1.41,1.67-2.63,3.58-3.66,5.71l-.16.34-.43-.52c-3.54-4.15-6.95-7.41-10.25-9.78l-.18-.14c-.59.88-1.51,1.84-2.75,2.9l-.13.1,4.02,6.67,5.16,1.46-9.23,5.56-.58-.31,8.5-5.12-4.24-1.19-4.33-7.19.34-.28c1.27-.96,2.25-1.91,2.92-2.86-.16-.1-.25-.16-.29-.19l-.49-.41s-.11-.08-.22-.16c-.61.66-1.86,1.73-3.76,3.21l-.17.15,4.8,7.96,3.31.9-7.89,4.75,1.04-3.52-3.61-6-.13.1c-.6.57-1.12,1.12-1.56,1.65l-.11.14-.38-.26c.4-.52.73-.9.98-1.15l.81-.8.12-.12-.56-.93c-.7.42-1.48,1.1-2.34,2.04l-.15.19c-.08-.18-.19-.64-.34-1.38,0-.06-.08-.38-.23-.95,0-.04-.02-.11-.04-.19.56-.29.98-.52,1.28-.7.32-.19.61-.39.86-.59l-5.29-8.78c-.75,0-1.48.06-2.2.18l-.17.03ZM30.59,24.66l5.79,9.62c.35-.21.65-.43.93-.68l-5.29-8.78c.55-.57,1.28-1.13,2.19-1.69,2.32-1.4,4.36-1.59,6.11-.56-1.31-.18-2.38-.21-3.21-.07-.83.13-1.71.48-2.63,1.04-.73.44-1.32.89-1.78,1.36l5.08,8.42.17-.15c2.09-1.84,3.42-3.56,4-5.17.58-1.61.43-3.15-.46-4.62-.8-1.32-1.96-2.1-3.51-2.35s-3.09.1-4.65,1.04c-1.25.75-2.16,1.62-2.74,2.6ZM45.66,30.17c2.23,2,5,3.6,8.31,4.79,2.07.75,4.37,1.15,6.89,1.22-2.29,2.37-4.18,5.01-5.67,7.94l-.1.2-.53-.07c1.38-2.86,3.14-5.41,5.29-7.66-4.8-.22-9.7-2.25-14.69-6.09l-.29-.24c2.81-3.57,3.36-6.78,1.65-9.61-.7-1.17-1.94-2.16-3.71-2.97,1.86.37,3.3,1.4,4.32,3.09,1.65,2.74,1.16,5.86-1.48,9.38Z"/>
    <path class="st0" d="M71.07,5.37l-1.49,2.92,5.57,7.95.69-.65-5.03-7.19,1.51-3.01.58.09-1.43,2.88,4.76,6.8c.13-.16.21-.26.23-.29l.52-.74c.32-.43.52-.72.59-.88.74,1.44,1.63,2.68,2.67,3.7-.4.07-.68.13-.86.18-1.28.33-2.16.77-2.65,1.33l6.19,8.97,3.63,1.56-10.19,2.61,2.19-3.06-3.75-5.32c-1.1,1.87-1.87,3.58-2.32,5.13h-.5c.46-1.52,1.26-3.3,2.42-5.33l.11-.24-.61-.79c-1.26,1.74-2.19,3.63-2.79,5.66l-.51-.49c-.99-.94-2.21-1.98-3.66-3.13l-.26-.19c-.45,2.57-.48,4.57-.12,6.01.22.85.55,1.53.98,2.04s1.39,1.31,2.84,2.4c.12.1.32.25.59.45l-10.9,2.79-.54-.44,10.27-2.63-.45-.34c-1.16-.85-1.96-1.54-2.39-2.06s-.75-1.2-.95-2c-.35-1.37-.32-3.56.1-6.56l-1.13-.7c-.06.48-.12,1.16-.18,2.07l-.14,2.23c-.08,1.2-.03,2.16.16,2.88.19.75.48,1.35.86,1.78.38.43,1.1.97,2.14,1.62.1.06.26.16.46.29l-10.09,2.59c1.67-1.49,2.85-3.22,3.54-5.19.69-1.97,1.14-4.85,1.34-8.65v-.3c-.86-.42-1.98-.53-3.36-.32.46-1.29.73-2.59.83-3.89.23.13.38.21.43.24l1.13.61c.39.22.83.42,1.34.62l.14-.98-.29-.14c-.82-.42-1.51-.75-2.06-1l-.22-.09.21-.53c.83.29,1.66.66,2.48,1.11l.81-8.25-2.73-1.75,9.3-2.39ZM66.24,11.02l-1.04,9.3c1.29.79,2.44,1.6,3.44,2.43l1.26,1.05s.11.08.27.21c.09-.15.14-.24.14-.27l.19-.42c.03-.06.08-.17.15-.32-1.31-1.21-2.75-2.24-4.3-3.09l.83-7.48-.96-1.41ZM67.75,13.13l-.72,6.42c.16.1.24.17.26.19l1.07.72c.57.37,1.33.98,2.27,1.83l.28.25c.39-.88.89-1.77,1.5-2.69l-4.67-6.72ZM79.59,13.77c.61,1.14,1.77,2.61,3.5,4.42-.31.04-.48.06-.52.07l-1.67.28c-.76.12-1.3.23-1.64.31-.05.01-.19.06-.4.12l5.66,8.08,5.52,2.82-11.69,3-.52-.45,10.72-2.75-4.46-2.28-6.03-8.58c.43-.24.94-.43,1.53-.58.73-.19,1.55-.33,2.47-.44l-.36-.38c-1.27-1.37-2.21-2.65-2.84-3.85l.72.22Z"/>
    <path class="st0" d="M90.47,2.2l8.2.25c4.01.12,6.96.99,8.84,2.59,2.8,2.37,4.13,5.98,3.98,10.84-.16,5.04-1.53,8.65-4.11,10.82-1.17.98-2.46,1.65-3.89,2.03s-3.3.52-5.63.45l-8.85-.27,2.92-2.1.68-22.14-2.15-2.46ZM90.26,30.65l-.29-.57,7.62.24c3.75.12,6.61-.32,8.59-1.3,4.25-2.09,6.47-6.32,6.67-12.7.13-4.26-.71-7.46-2.52-9.58l-.8-.94s-.11-.13-.24-.3c2.89,1.94,4.25,5.52,4.09,10.74-.17,5.48-1.75,9.48-4.75,11.99-2.3,1.93-5.98,2.82-11.05,2.66l-7.31-.23ZM96.73,4.14l-.72,23.37,1.15.04.68-21.99c.72-.09,1.39-.12,1.98-.11,1.14.04,2.03.18,2.69.43s1.3.69,1.95,1.32c-1.45-.74-3.02-1.14-4.7-1.19-.36-.01-.83,0-1.42.04l-.66,21.51c1.56.05,2.74-.04,3.55-.28.81-.23,1.59-.7,2.34-1.42,2.08-1.98,3.19-5.38,3.34-10.19.14-4.71-.85-7.95-2.97-9.74-1.29-1.08-3.36-1.67-6.22-1.76l-.98-.03Z"/>
    <path class="st0" d="M142.76,10.39l-.43.29c-1.85,1.27-3.49,2.86-4.93,4.78-.04-.35-.08-.6-.1-.77-.26-1.81-.74-3.08-1.45-3.79-.7-.71-2.14-1.39-4.31-2.03-1-.29-2.21-.61-3.63-.96l-2.71,9.19,1.28.38,2.4-8.13c1.04.21,2.02.44,2.94.71,1.69.5,2.88,1.04,3.58,1.64s1.2,1.5,1.52,2.73c-.15-.19-.25-.33-.31-.42-.83-1.17-1.46-1.91-1.89-2.21-.43-.3-1.36-.66-2.77-1.08-.43-.13-1.19-.32-2.3-.59l-.43-.1-2.24,7.59,3.68,1.08,3.62-2.78-2.54,8.61-1.59-4.1-5.46-1.61-3.3,11.21,1.28.38,3.03-10.27,4.34,1.28.37.67-4.36-1.28-2.87,9.75c2.72.8,4.71,1.18,5.97,1.13s2.38-.54,3.37-1.48l1.6-1.51c.06-.07.19-.19.37-.37-.09,1.57,0,2.87.25,3.9s.8,2.31,1.64,3.83l-22.4-6.6,3.72-1.42,2.62-8.91c-1.16-.2-2.27-.15-3.34.14l-.16-.5c.99-.35,2.2-.4,3.65-.16l.28-.94c-.22-.09-.38-.15-.47-.18-1.36-.4-2.75-.27-4.16.4,1.24-1.95,2.95-2.61,5.14-1.96l2.51-8.53-2.33-3.29,21.33,6.28ZM138.62,36.87l-1.57,1.49-21.83-6.43-.16-.63,21.88,6.45,1.05-1.06c-1.4-2.34-2.19-4.63-2.39-6.87l.57.43c.23,1.92.97,3.99,2.21,6.21l.23.41ZM135.47,17l-2.6,8.83-.42-.41,2.6-8.83.42.41ZM143.31,12.08l-.19.14c-2.27,1.71-3.89,3.22-4.88,4.54l-.22-.52c1.5-1.8,3.21-3.35,5.13-4.66l.16.5Z"/>
    <path class="st0" d="M151.19,16.63c3.8.09,7.32,1.13,10.55,3.11,2.51,1.54,4.25,3.35,5.21,5.44.96,2.09.93,3.97-.1,5.65-.84,1.37-2.12,2.27-3.83,2.67s-3.64.28-5.78-.37c-.56,2.75-.79,5.62-.69,8.61s.51,5.49,1.22,7.49l-.32-.07c-2.14-.48-4.39-.68-6.76-.62h-.38s.26-.61.26-.61c2.05-5.05,3.36-9.58,3.95-13.61l.04-.22c-1.05-.12-2.33-.49-3.84-1.1l-.15-.07-4.07,6.65,1.08,5.25-9.19-5.62v-.65s8.47,5.18,8.47,5.18l-.9-4.31,4.38-7.16.41.18c1.44.68,2.73,1.11,3.88,1.28.02-.19.03-.3.04-.34l.14-.62s.02-.13.04-.27c-.87-.24-2.39-.85-4.58-1.85l-.22-.08-4.85,7.93.73,3.35-7.86-4.81,3.6-.7,3.65-5.97-.15-.07c-.78-.27-1.51-.48-2.18-.63l-.17-.03.06-.45c.64.12,1.14.23,1.48.34l1.08.35.16.05.57-.92c-.7-.43-1.66-.81-2.89-1.14l-.24-.05c.12-.15.48-.46,1.06-.94.05-.03.3-.25.74-.65.03-.03.08-.07.15-.13.51.36.92.63,1.21.81.32.2.63.36.92.49l5.35-8.74c-.34-.67-.74-1.29-1.18-1.87l-.11-.14ZM158.9,35.37c-.75,2.9-.89,6.09-.42,9.59.29,2.18.99,4.41,2.09,6.68-3.16-.94-6.38-1.39-9.67-1.37h-.23s-.18-.49-.18-.49c3.17-.1,6.25.29,9.23,1.16-2.02-4.36-2.48-9.64-1.38-15.84l.08-.37c4.47.84,7.56-.14,9.29-2.96.71-1.16,1.02-2.72.92-4.66.53,1.82.28,3.57-.75,5.26-1.67,2.73-4.67,3.73-9,3.02ZM156.84,19.45l-5.86,9.58c.34.21.69.38,1.03.51l5.35-8.74c.76.22,1.6.61,2.51,1.17,2.31,1.41,3.42,3.13,3.32,5.16-.44-1.25-.91-2.21-1.41-2.88-.5-.67-1.21-1.29-2.14-1.86-.72-.44-1.4-.76-2.03-.95l-5.13,8.39.22.08c2.59,1,4.74,1.39,6.43,1.16s2.99-1.07,3.89-2.54c.8-1.31.96-2.71.47-4.2-.49-1.48-1.52-2.7-3.07-3.65-1.24-.76-2.43-1.17-3.57-1.23Z"/>
    <path class="st0" d="M182.74,55.24c.3,2.35-.44,4.4-2.22,6.14-1.9,1.86-4.22,2.69-6.97,2.51-2.75-.18-5.16-1.32-7.22-3.43-1.05-1.07-1.89-2.15-2.52-3.22l-1.75-2.95c-.41-.69-.92-1.35-1.54-1.99-.55-.57-1.18-.97-1.87-1.23l.26-.6c.74.28,1.38.69,1.9,1.23.58.6,1.16,1.36,1.73,2.3l1.69,2.83c.68,1.13,1.51,2.2,2.5,3.21,1.94,1.98,4.23,3.05,6.86,3.21s4.84-.65,6.64-2.41c1.52-1.49,2.32-3.33,2.42-5.51l.09-.09ZM192.24,45.94c-1.2.16-2.33.46-3.38.89-2.08.85-3.39,1.34-3.92,1.48h-.16c.07-.13.12-.25.17-.32.62-1.15,1.02-1.99,1.19-2.51.17-.52.24-1.11.21-1.78-.08-1.69-.68-3.11-1.81-4.26-1.04-1.06-2.2-1.66-3.48-1.78-1.28-.13-2.37.25-3.26,1.12-1.67,1.63-1.57,4,.28,7.1l1.85,3.11c2.65,4.43,2.51,8.07-.41,10.93-1.63,1.59-3.59,2.32-5.9,2.18-2.31-.14-4.34-1.12-6.11-2.92-1.11-1.13-2.17-2.57-3.2-4.31l-1.27-2.16c-.52-.87-1.01-1.53-1.45-1.99-.59-.61-1.4-1.04-2.42-1.31l.09-.32c3.06-.59,5.67-1.45,7.84-2.6l.19.34c-1.35,1.73-1.95,3.54-1.79,5.43.16,1.89,1.06,3.67,2.71,5.36,1.3,1.33,2.64,2.09,4.03,2.27,1.38.18,2.6-.24,3.64-1.26,1.2-1.18,1.66-2.69,1.37-4.55-.21-1.33-1.27-3.44-3.17-6.34-1.47-2.23-2.19-4.19-2.16-5.87s.8-3.26,2.32-4.75c1.57-1.54,3.39-2.22,5.47-2.05,2.08.17,4.01,1.16,5.77,2.96,1.14,1.16,2.26,2.72,3.35,4.68.51.92.94,1.55,1.28,1.9.48.49,1.17.85,2.07,1.1l.09.24ZM168.08,48.84c-1.43,2.12-1.73,4.34-.91,6.66l-.12.12c-1.27-2.37-1.08-4.74.56-7.11l.47.33ZM171.08,42.26l.21.78c-.26.9.19,2.33,1.36,4.3l1.75,2.98c1.19,2.03,1.9,3.45,2.14,4.28.24.83.17,1.65-.2,2.46l-.16-.05c.08-.95-.02-1.81-.29-2.56-.27-.75-.96-2.04-2.06-3.86-1.6-2.63-2.58-4.49-2.94-5.58-.36-1.09-.29-2.01.2-2.76ZM185.3,46.03c.09-2.23-.47-3.97-1.7-5.22-.74-.75-1.57-1.17-2.49-1.23-.92-.07-1.72.23-2.4.89-.73.72-1,1.96-.79,3.72l.04.19-.19.04c-.7-1.88-.49-3.37.62-4.46.77-.76,1.68-1.1,2.71-1.02,1.03.08,1.98.57,2.86,1.46.84.85,1.39,1.78,1.65,2.77.26.99.21,1.96-.15,2.9l-.16-.05ZM192.52,47.48l-.35.08c-1.08.26-2.08.56-2.99.88-2.14.73-3.34,1.14-3.59,1.21l-.18.03-.2-.5.19-.07c.94-.35,2.2-.77,3.79-1.26l2.96-.91.19-.04.19.58Z"/>
  </g>
</svg>